<svg data-v-423bf9ae="" xmlns="http://www.w3.org/2000/svg" viewBox="0 0 290 103" class="iconLeft"><!----><!----><!----><g data-v-423bf9ae="" id="a8c2b798-7cf8-4582-951d-8a790bb9cbae" fill="black" transform="matrix(5.92300092025334,0,0,5.92300092025334,88.7583707027519,0.07928323694147821)" data-darkreader-inline-fill="" style="--darkreader-inline-fill:#000000;"><path d="M8.65 7.07L8.65 7.07L8.65 7.07Q8.46 6.55 8.04 6.19L8.04 6.19L8.04 6.19Q7.62 5.82 7.08 5.62L7.08 5.62L7.08 5.62Q6.54 5.42 5.94 5.37L5.94 5.37L5.94 5.37Q5.33 5.32 4.80 5.43L4.80 5.43L4.80 5.43Q4.23 5.56 3.77 5.86L3.77 5.86L3.77 5.86Q3.32 6.16 3.00 6.59L3.00 6.59L3.00 6.59Q2.69 7.01 2.52 7.53L2.52 7.53L2.52 7.53Q2.35 8.05 2.35 8.61L2.35 8.61L2.35 8.61Q2.35 9.66 2.80 10.40L2.80 10.40L2.80 10.40Q3.25 11.13 3.93 11.52L3.93 11.52L3.93 11.52Q4.62 11.91 5.43 11.94L5.43 11.94L5.43 11.94Q6.24 11.97 6.97 11.63L6.97 11.63L6.97 11.63Q7.60 11.35 8.39 10.54L8.39 10.54L9.59 11.84L9.59 11.84Q9.11 12.33 8.67 12.68L8.67 12.68L8.67 12.68Q8.22 13.03 7.74 13.26L7.74 13.26L7.74 13.26Q7.25 13.48 6.71 13.59L6.71 13.59L6.71 13.59Q6.17 13.71 5.54 13.71L5.54 13.71L5.54 13.71Q4.41 13.71 3.54 13.34L3.54 13.34L3.54 13.34Q2.67 12.98 2.06 12.37L2.06 12.37L2.06 12.37Q1.44 11.76 1.08 10.97L1.08 10.97L1.08 10.97Q0.73 10.18 0.62 9.32L0.62 9.32L0.62 9.32Q0.50 8.47 0.66 7.62L0.66 7.62L0.66 7.62Q0.81 6.78 1.22 6.05L1.22 6.05L1.22 6.05Q1.61 5.36 2.11 4.89L2.11 4.89L2.11 4.89Q2.60 4.42 3.19 4.14L3.19 4.14L3.19 4.14Q3.77 3.85 4.42 3.72L4.42 3.72L4.42 3.72Q5.07 3.60 5.77 3.58L5.77 3.58L5.77 3.58Q6.26 3.58 6.80 3.68L6.80 3.68L6.80 3.68Q7.34 3.77 7.82 3.96L7.82 3.96L7.82 3.96Q8.30 4.14 8.68 4.44L8.68 4.44L8.68 4.44Q9.06 4.73 9.21 5.12L9.21 5.12L9.21 5.12Q9.37 5.52 9.25 6.00L9.25 6.00L9.25 6.00Q9.14 6.48 8.65 7.07ZM10.85 6.29L12.68 6.29L12.68 9.76L12.68 9.76Q12.68 10.01 12.69 10.30L12.69 10.30L12.69 10.30Q12.70 10.58 12.75 10.86L12.75 10.86L12.75 10.86Q12.80 11.13 12.92 11.37L12.92 11.37L12.92 11.37Q13.03 11.61 13.27 11.77L13.27 11.77L13.27 11.77Q13.43 11.89 13.63 11.94L13.63 11.94L13.63 11.94Q13.83 12.00 14.04 12.00L14.04 12.00L14.04 12.00Q14.25 12.00 14.45 11.94L14.45 11.94L14.45 11.94Q14.64 11.89 14.81 11.77L14.81 11.77L14.81 11.77Q15.05 11.62 15.17 11.39L15.17 11.39L15.17 11.39Q15.29 11.16 15.34 10.89L15.34 10.89L15.34 10.89Q15.39 10.63 15.39 10.35L15.39 10.35L15.39 10.35Q15.39 10.07 15.39 9.81L15.39 9.81L15.39 7.73L15.39 7.73Q15.37 6.97 15.88 6.60L15.88 6.60L15.88 6.60Q16.38 6.23 17.19 6.26L17.19 6.26L17.19 9.34L17.19 9.34Q17.21 10.29 17.13 10.93L17.13 10.93L17.13 10.93Q17.05 11.56 16.90 11.93L16.90 11.93L16.90 11.93Q16.49 12.87 15.75 13.27L15.75 13.27L15.75 13.27Q15.01 13.68 14.01 13.68L14.01 13.68L14.01 13.68Q12.94 13.68 12.17 13.20L12.17 13.20L12.17 13.20Q11.40 12.73 11.06 11.68L11.06 11.68L11.06 11.68Q10.96 11.35 10.91 10.80L10.91 10.80L10.91 10.80Q10.85 10.25 10.85 9.59L10.85 9.59L10.85 6.29ZM20.37 12.75L20.37 13.52L18.61 13.52L18.61 5.17L18.61 5.17Q18.61 4.59 19.07 4.17L19.07 4.17L19.07 4.17Q19.54 3.75 20.37 3.72L20.37 3.72L20.37 9.37L20.37 9.37Q20.37 9.84 20.46 10.33L20.46 10.33L20.46 10.33Q20.55 10.81 20.76 11.20L20.76 11.20L20.76 11.20Q20.97 11.59 21.34 11.84L21.34 11.84L21.34 11.84Q21.70 12.08 22.25 12.08L22.25 12.08L22.25 12.08Q22.89 12.08 23.32 11.77L23.32 11.77L23.32 11.77Q23.74 11.47 23.95 11.00L23.95 11.00L23.95 11.00Q24.16 10.54 24.16 10.00L24.16 10.00L24.16 10.00Q24.15 9.45 23.93 8.99L23.93 8.99L23.93 8.99Q23.72 8.53 23.29 8.22L23.29 8.22L23.29 8.22Q22.86 7.91 22.23 7.91L22.23 7.91L22.23 7.91Q21.85 7.91 21.43 8.03L21.43 8.03L21.43 8.03Q21 8.15 20.76 8.48L20.76 8.48L20.76 8.48Q20.64 8.26 20.63 7.90L20.63 7.90L20.63 7.90Q20.62 7.53 20.80 7.18L20.80 7.18L20.80 7.18Q20.99 6.83 21.38 6.57L21.38 6.57L21.38 6.57Q21.77 6.30 22.47 6.27L22.47 6.27L22.47 6.27Q23.14 6.26 23.77 6.52L23.77 6.52L23.77 6.52Q24.39 6.79 24.87 7.28L24.87 7.28L24.87 7.28Q25.35 7.77 25.64 8.46L25.64 8.46L25.64 8.46Q25.93 9.16 25.93 9.98L25.93 9.98L25.93 9.98Q25.93 10.84 25.66 11.52L25.66 11.52L25.66 11.52Q25.40 12.19 24.95 12.67L24.95 12.67L24.95 12.67Q24.50 13.15 23.93 13.41L23.93 13.41L23.93 13.41Q23.35 13.68 22.74 13.70L22.74 13.70L22.74 13.70Q22.12 13.72 21.50 13.50L21.50 13.50L21.50 13.50Q20.89 13.27 20.37 12.75L20.37 12.75ZM32.13 10.72L32.13 10.72L32.13 10.72Q31.37 10.92 30.75 10.86L30.75 10.86L30.75 10.86Q30.13 10.81 29.73 10.56L29.73 10.56L29.73 10.56Q29.33 10.32 29.20 9.91L29.20 9.91L29.20 9.91Q29.06 9.49 29.27 8.97L29.27 8.97L29.27 8.97Q29.71 9.34 30.28 9.37L30.28 9.37L30.28 9.37Q30.86 9.41 31.39 9.35L31.39 9.35L31.39 9.35Q31.84 9.31 32.07 9.16L32.07 9.16L32.07 9.16Q32.30 9.00 32.35 8.80L32.35 8.80L32.35 8.80Q32.41 8.60 32.31 8.37L32.31 8.37L32.31 8.37Q32.21 8.15 32.00 7.97L32.00 7.97L32.00 7.97Q31.78 7.78 31.46 7.67L31.46 7.67L31.46 7.67Q31.15 7.56 30.77 7.57L30.77 7.57L30.77 7.57Q30.37 7.60 30.00 7.77L30.00 7.77L30.00 7.77Q29.64 7.94 29.36 8.23L29.36 8.23L29.36 8.23Q29.08 8.53 28.91 8.92L28.91 8.92L28.91 8.92Q28.74 9.31 28.73 9.79L28.73 9.79L28.73 9.79Q28.71 10.18 28.82 10.56L28.82 10.56L28.82 10.56Q28.92 10.93 29.13 11.25L29.13 11.25L29.13 11.25Q29.34 11.56 29.64 11.78L29.64 11.78L29.64 11.78Q29.93 12.00 30.31 12.05L30.31 12.05L30.31 12.05Q30.84 12.15 31.40 11.98L31.40 11.98L31.40 11.98Q31.96 11.82 32.40 11.37L32.40 11.37L33.87 12.08L33.87 12.08Q33.29 12.94 32.51 13.31L32.51 13.31L32.51 13.31Q31.72 13.68 30.72 13.68L30.72 13.68L30.72 13.68Q29.78 13.68 29.07 13.35L29.07 13.35L29.07 13.35Q28.36 13.02 27.89 12.47L27.89 12.47L27.89 12.47Q27.43 11.93 27.20 11.24L27.20 11.24L27.20 11.24Q26.96 10.54 26.98 9.82L26.98 9.82L26.98 9.82Q26.99 9.10 27.26 8.41L27.26 8.41L27.26 8.41Q27.52 7.71 28.03 7.18L28.03 7.18L28.03 7.18Q28.59 6.58 29.34 6.33L29.34 6.33L29.34 6.33Q30.09 6.08 30.87 6.08L30.87 6.08L30.87 6.08Q31.74 6.08 32.37 6.37L32.37 6.37L32.37 6.37Q33.00 6.66 33.39 7.12L33.39 7.12L33.39 7.12Q33.78 7.57 33.91 8.13L33.91 8.13L33.91 8.13Q34.03 8.68 33.89 9.20L33.89 9.20L33.89 9.20Q33.74 9.72 33.31 10.13L33.31 10.13L33.31 10.13Q32.87 10.54 32.13 10.72Z"></path></g><!----><g data-v-423bf9ae="" id="65d1308d-41b3-4200-aa09-e158288e06db" transform="matrix(1.0675374348958333,0,0,1.0675374348958333,-16.08539113103567,-1.3973362515864807)" stroke="none" fill="black" data-darkreader-inline-fill="" data-darkreader-inline-stroke="" style="--darkreader-inline-fill:#000000; --darkreader-inline-stroke:none;"><path d="M50.658 17.943a3.502 3.502 0 1 0 7.004 0 3.502 3.502 0 0 0-7.004 0zm-10.254 8.182c0 1.284 1.097 2.325 2.45 2.325h11.208c1.352 0 2.449-1.041 2.449-2.325 0-1.284-1.098-2.325-2.449-2.325H42.854c-1.353 0-2.45 1.041-2.45 2.325zm-1.108-8.182a3.502 3.502 0 1 0 7.005 0 3.502 3.502 0 0 0-7.005 0zm-.014 18.9v6.525c0 .676.548 1.224 1.224 1.224h4.836a3.08 3.08 0 0 1 4.256-2.539l3.133-3.61c.535-.617 1.461.186.925.803l-3.04 3.502c.474.487.788 1.13.857 1.844h4.91c.676 0 1.225-.548 1.225-1.224v-6.525c0-.676-.549-1.225-1.225-1.225H40.506c-.676 0-1.224.549-1.224 1.225zm6.923-31.566c0 1.023.667 1.891 1.589 2.192v-.118c0-.428.335-.645.645-.645s.644.217.644.645v.161a2.307 2.307 0 1 0-2.878-2.235zM27.612 59.116l-1.124.239-1.251-5.887a2.416 2.416 0 0 0-2.867-1.863l-.43.092a2.415 2.415 0 0 0-1.861 2.866l1.251 5.888-1.125.239-2.534-2.813-2.533-2.814 1.17-3.602 1.17-3.601.765-.163c-.227-1.143-.22-2.247-.094-3.271.804-6.547 6.97-10.524 13.624-11.378a2.448 2.448 0 0 1 1.951-.968h9.514v-1.219h-3.831a2.275 2.275 0 0 1-2.274-2.275v-3.858H35.78a1.226 1.226 0 0 1-1.225-1.225v-4.954c0-.676.548-1.225 1.225-1.225h1.352v-4.858a2.275 2.275 0 0 1 2.274-2.274h8.389V8.801a3.595 3.595 0 1 1 1.29.027v1.364H57.5a2.275 2.275 0 0 1 2.275 2.274v4.858h1.334c.678 0 1.227.548 1.227 1.225v4.954c0 .676-.549 1.225-1.227 1.225h-1.334v3.858a2.276 2.276 0 0 1-2.275 2.275h-3.801v1.219h9.512c.863 0 1.623.448 2.059 1.124 5.086-.601 8.021-3.439 8.343-6.062a4.182 4.182 0 0 0-.008-1.252l-.651.139-2.533-2.814-2.535-2.815 1.169-3.601 1.172-3.601 1.125-.239 1.25 5.887a2.416 2.416 0 0 0 2.867 1.861l.43-.091a2.415 2.415 0 0 0 1.861-2.867l-1.25-5.887 1.123-.239 2.533 2.814 2.535 2.814-1.17 3.601-1.172 3.601-.764.163c.227 1.142.219 2.246.094 3.271-.82 6.679-7.223 10.684-14.03 11.426V61.26a2.448 2.448 0 0 1-2.448 2.447h-.473V89.25h1.178v6.333h1.336v2.179H49.326v-2.179h1.402V89.25h1.521V63.707h-7.645V89.25h1.178v6.333h1.337v2.179H31.192v-2.179h1.403V89.25h1.521V63.707h-.393a2.448 2.448 0 0 1-2.449-2.447V39.32c-4.289.89-6.754 3.46-7.048 5.852-.061.49-.053.898.008 1.252l.652-.138 2.533 2.814 2.534 2.812-1.169 3.603-1.172 3.601z"></path></g><!----></svg>